<svg xmlns:dc="http://purl.org/dc/elements/1.1/" xmlns:cc="http://creativecommons.org/ns#" xmlns:rdf="http://www.w3.org/1999/02/22-rdf-syntax-ns#" xmlns:svg="http://www.w3.org/2000/svg" xmlns="http://www.w3.org/2000/svg" xmlns:sodipodi="http://sodipodi.sourceforge.net/DTD/sodipodi-0.dtd" xmlns:inkscape="http://www.inkscape.org/namespaces/inkscape" viewBox="0 0 16.933333 21.1666675" version="1.1" x="0px" y="0px"><g transform="translate(0,-280.06665)"><path d="m 3.307238,283.24161 c -0.874839,0 -1.5875,0.71312 -1.5875,1.58802 v 9.52448 0.001 c 2.49e-4,0.009 0.001,0.0176 0.0021,0.0264 0.0149,0.86198 0.72037,1.56011 1.585949,1.56011 h 8.730219 c 0.146949,5.3e-4 0.266213,-0.11869 0.265615,-0.26561 v -1.32085 -1.32292 -4.76353 c 0,-0.14613 -0.118459,-0.26459 -0.264583,-0.26459 -0.146124,0 -0.264584,0.11846 -0.264584,0.26459 l -5.16e-4,4.49791 H 3.307271 c -0.406741,0 -0.776962,0.15546 -1.058333,0.40825 v -8.34523 c 0,-0.59089 0.467484,-1.05885 1.058333,-1.05885 h 4.843116 a 0.26458337,0.26458337 0 0 0 0.264065,-0.26458 0.26458337,0.26458337 0 0 0 -0.264065,-0.26459 z m 0,10.05417 h 8.466667 v 0.11834 1.99833 H 3.307238 c -0.590849,0 -1.058333,-0.46758 -1.058333,-1.05834 0,-0.59074 0.467484,-1.05833 1.058333,-1.05833 z" style="color:#000000;font-style:normal;font-variant:normal;font-weight:normal;font-stretch:normal;font-size:medium;line-height:normal;font-family:sans-serif;font-variant-ligatures:normal;font-variant-position:normal;font-variant-caps:normal;font-variant-numeric:normal;font-variant-alternates:normal;font-feature-settings:normal;text-indent:0;text-align:start;text-decoration:none;text-decoration-line:none;text-decoration-style:solid;text-decoration-color:#000000;letter-spacing:normal;word-spacing:normal;text-transform:none;writing-mode:lr-tb;direction:ltr;text-orientation:mixed;dominant-baseline:auto;baseline-shift:baseline;text-anchor:start;white-space:normal;shape-padding:0;clip-rule:nonzero;display:inline;overflow:visible;visibility:visible;opacity:1;isolation:auto;mix-blend-mode:normal;color-interpolation:sRGB;color-interpolation-filters:linearRGB;solid-color:#000000;solid-opacity:1;vector-effect:none;fill:#000000;fill-opacity:1;fill-rule:nonzero;stroke:none;stroke-width:0.5291667;stroke-linecap:butt;stroke-linejoin:round;stroke-miterlimit:4;stroke-dasharray:none;stroke-dashoffset:0;stroke-opacity:1;paint-order:normal;color-rendering:auto;image-rendering:auto;shape-rendering:auto;text-rendering:auto;enable-background:accumulate"/><path style="color:#000000;font-style:normal;font-variant:normal;font-weight:normal;font-stretch:normal;font-size:medium;line-height:normal;font-family:sans-serif;font-variant-ligatures:normal;font-variant-position:normal;font-variant-caps:normal;font-variant-numeric:normal;font-variant-alternates:normal;font-feature-settings:normal;text-indent:0;text-align:start;text-decoration:none;text-decoration-line:none;text-decoration-style:solid;text-decoration-color:#000000;letter-spacing:normal;word-spacing:normal;text-transform:none;writing-mode:lr-tb;direction:ltr;text-orientation:mixed;dominant-baseline:auto;baseline-shift:baseline;text-anchor:start;white-space:normal;shape-padding:0;clip-rule:nonzero;display:inline;overflow:visible;visibility:visible;opacity:1;isolation:auto;mix-blend-mode:normal;color-interpolation:sRGB;color-interpolation-filters:linearRGB;solid-color:#000000;solid-opacity:1;vector-effect:none;fill:#000000;fill-opacity:1;fill-rule:nonzero;stroke:none;stroke-width:0.52916688;stroke-linecap:butt;stroke-linejoin:round;stroke-miterlimit:4;stroke-dasharray:none;stroke-dashoffset:0;stroke-opacity:1;paint-order:normal;color-rendering:auto;image-rendering:auto;shape-rendering:auto;text-rendering:auto;enable-background:accumulate" d="m 12.038599,281.12498 c -1.74996,0 -3.175,1.4255 -3.175,3.17598 0,1.75047 1.42504,3.17402 3.175,3.17402 1.74996,0 3.175,-1.42355 3.175,-3.17402 0,-1.75048 -1.42504,-3.17598 -3.175,-3.17598 z m 0,0.52932 c 1.46405,0 2.64583,1.18218 2.64583,2.64666 0,1.46447 -1.18178,2.64664 -2.64583,2.64664 -1.46405,0 -2.64584,-1.18217 -2.64584,-2.64664 0,-1.46448 1.18179,-2.64666 2.64584,-2.64666 z"/><path d="m 12.036014,282.71249 c -0.146206,10e-4 -0.263554,0.12128 -0.261998,0.26768 v 1.05558 H 10.71728 c -0.177453,-5.3e-4 -0.266181,0.13198 -0.266181,0.26459 0,0.1326 0.08873,0.26521 0.266181,0.26458 h 1.056736 v 1.05763 c 0,0.17663 0.132291,0.26494 0.264583,0.26494 0.132292,0 0.264583,-0.0883 0.264583,-0.26494 v -1.05763 h 1.056736 c 0.177456,5.3e-4 0.266181,-0.13198 0.266181,-0.26458 0,-0.13261 -0.08872,-0.26521 -0.266181,-0.26459 h -1.056736 v -1.05558 c 0.0016,-0.14842 -0.118938,-0.26917 -0.267168,-0.26768 z" style="color:#000000;font-style:normal;font-variant:normal;font-weight:normal;font-stretch:normal;font-size:medium;line-height:normal;font-family:sans-serif;font-variant-ligatures:normal;font-variant-position:normal;font-variant-caps:normal;font-variant-numeric:normal;font-variant-alternates:normal;font-feature-settings:normal;text-indent:0;text-align:start;text-decoration:none;text-decoration-line:none;text-decoration-style:solid;text-decoration-color:#000000;letter-spacing:normal;word-spacing:normal;text-transform:none;writing-mode:lr-tb;direction:ltr;text-orientation:mixed;dominant-baseline:auto;baseline-shift:baseline;text-anchor:start;white-space:normal;shape-padding:0;clip-rule:nonzero;display:inline;overflow:visible;visibility:visible;opacity:1;isolation:auto;mix-blend-mode:normal;color-interpolation:sRGB;color-interpolation-filters:linearRGB;solid-color:#000000;solid-opacity:1;vector-effect:none;fill:#000000;fill-opacity:1;fill-rule:nonzero;stroke:none;stroke-width:0.52916676;stroke-linecap:round;stroke-linejoin:miter;stroke-miterlimit:4;stroke-dasharray:none;stroke-dashoffset:0;stroke-opacity:1;color-rendering:auto;image-rendering:auto;shape-rendering:auto;text-rendering:auto;enable-background:accumulate"/></g><text x="0" y="31.933334" fill="#000000" font-size="5px" font-weight="bold" font-family="'Helvetica Neue', Helvetica, Arial-Unicode, Arial, Sans-serif">Created by Ranah Pixel Studio</text><text x="0" y="36.933334" fill="#000000" font-size="5px" font-weight="bold" font-family="'Helvetica Neue', Helvetica, Arial-Unicode, Arial, Sans-serif">from the Noun Project</text></svg>